<svg width="20" height="20" viewBox="0 0 20 20" fill="none" xmlns="http://www.w3.org/2000/svg">
<path fill-rule="evenodd" clip-rule="evenodd" d="M0.292893 0.292893C-0.0976309 0.683417 -0.0976313 1.31658 0.292893 1.70711L3.68016 5.09438C2.11609 6.25589 0.886831 7.83549 0.161508 9.6657C0.0764676 9.88028 0.0764845 10.1193 0.161514 10.3339C1.70802 14.2367 5.54605 17 10.0358 17C11.6608 17 13.2004 16.6381 14.5769 15.9911L17.9706 19.3848C18.3611 19.7753 18.9943 19.7753 19.3848 19.3848C19.7753 18.9943 19.7753 18.3611 19.3848 17.9706L1.70711 0.292893C1.31658 -0.0976311 0.683418 -0.0976311 0.292893 0.292893ZM13.0498 14.464L11.3049 12.7191C10.9194 12.8993 10.4893 13 10.0357 13C8.37888 13 7.03574 11.6569 7.03574 10C7.03574 9.54639 7.13641 9.1163 7.31663 8.73085L5.11337 6.52758C3.9118 7.35715 2.93533 8.48164 2.29093 9.7929C2.2268 9.92341 2.22682 10.0762 2.29095 10.2068C3.68265 13.039 6.62358 15 10.0358 15C11.0969 15 12.1123 14.8104 13.0498 14.464ZM17.7806 9.79327C17.8447 9.92378 17.8447 10.0766 17.7806 10.2071C17.4126 10.9558 16.9364 11.6437 16.3718 12.2505L17.7866 13.6653C18.6917 12.7057 19.4172 11.5779 19.91 10.3343C19.995 10.1197 19.995 9.88076 19.91 9.66617C18.3635 5.76332 14.5255 3 10.0357 3C9.13966 3 8.26962 3.11005 7.43857 3.31725C8.08856 3.96724 9.2 5.01253 9.2 5.01253C9.35602 5.00421 9.8775 5 10.0357 5C13.4479 5 16.3889 6.961 17.7806 9.79327Z" fill="#635BFF"/>
</svg>
