<svg width="20" height="14" viewBox="0 0 20 14" fill="none" xmlns="http://www.w3.org/2000/svg">
<path fill-rule="evenodd" clip-rule="evenodd" d="M10.0001 12C6.58786 12 3.64693 10.039 2.25522 7.20674C2.1911 7.07623 2.1911 6.92334 2.25524 6.79284C3.64703 3.96079 6.58784 2 9.99992 2C13.4122 2 16.3531 3.96099 17.7448 6.79327C17.8089 6.92377 17.8089 7.07666 17.7448 7.20717C16.353 10.0392 13.4122 12 10.0001 12ZM9.99992 0C14.3623 0 18.1093 2.60867 19.737 6.33661C19.9218 6.75968 19.9218 7.24087 19.737 7.66393C18.1092 11.3916 14.3622 14 10.0001 14C5.63777 14 1.89071 11.3913 0.262985 7.66339C0.0782596 7.24032 0.0782732 6.75913 0.263022 6.33607C1.89087 2.60842 5.63778 0 9.99992 0ZM10 10C11.6569 10 13 8.65685 13 7C13 5.34315 11.6569 4 10 4C8.34316 4 7.00001 5.34315 7.00001 7C7.00001 8.65685 8.34316 10 10 10Z" fill="#635BFF"/>
</svg>
